<?xml version="1.0" standalone="no"?>
<!DOCTYPE svg PUBLIC "-//W3C//DTD SVG 20010904//EN"
 "http://www.w3.org/TR/2001/REC-SVG-20010904/DTD/svg10.dtd">
<svg version="1.0" xmlns="http://www.w3.org/2000/svg"
 width="300.000000pt" height="300.000000pt" viewBox="0 0 300.000000 300.000000"
 preserveAspectRatio="xMidYMid meet">
<metadata>
Created by potrace 1.14, written by Peter Selinger 2001-2017
</metadata>
<g transform="translate(0.000000,300.000000) scale(0.100000,-0.100000)"
fill="#000000" stroke="none">
<path d="M1195 2966 l-30 -13 32 0 c19 0 30 4 26 10 -4 6 -1 7 6 2 25 -15 -6
-25 -83 -27 -67 -3 -76 -5 -73 -20 3 -10 2 -17 -2 -16 -3 0 -8 -1 -11 -2 -3
-1 -27 -4 -55 -6 -67 -5 -86 -9 -85 -17 0 -4 0 -9 0 -12 0 -3 9 -1 20 5 15 8
18 8 14 -3 -3 -8 -13 -14 -22 -14 -78 0 -115 -5 -97 -13 18 -8 18 -9 2 -9 -10
-1 -15 -5 -12 -11 3 -6 -5 -10 -19 -10 -13 0 -32 -7 -40 -16 -15 -14 -16 -14
-17 3 -1 12 -3 10 -8 -7 -4 -15 -15 -26 -29 -28 -20 -3 -27 -13 -23 -35 1 -5
-3 -6 -9 -2 -6 4 -16 3 -23 -2 -7 -5 -19 -9 -27 -8 -8 0 -18 -9 -21 -20 -3
-12 -12 -19 -22 -17 -9 2 -17 -2 -17 -8 0 -6 -4 -9 -9 -6 -5 3 -8 -2 -7 -12 0
-10 -6 -16 -16 -16 -15 2 -22 -11 -20 -36 1 -5 -17 -9 -55 -12 -7 -1 -10 -5
-7 -10 3 -5 9 -6 13 -4 4 3 8 -1 8 -9 0 -18 -24 -20 -30 -2 -2 6 -8 -4 -12
-24 -4 -20 -13 -36 -20 -36 -11 0 -12 5 -4 21 10 20 10 21 -5 2 -9 -11 -16
-30 -16 -43 0 -16 -6 -23 -19 -23 -13 0 -21 -8 -23 -22 -2 -16 -9 -23 -25 -22
-15 1 -20 -4 -18 -16 4 -21 -6 -35 -25 -35 -15 0 -16 -4 -19 -50 -1 -17 -7
-25 -20 -25 -15 0 -20 -10 -25 -45 -4 -24 -10 -44 -14 -44 -22 4 -30 -4 -31
-28 -1 -59 -2 -63 -22 -63 -14 0 -19 -7 -19 -25 0 -23 -10 -30 -33 -26 -5 1
-6 -3 -2 -8 3 -6 11 -8 19 -5 7 3 13 -2 13 -11 0 -10 -6 -13 -19 -9 -14 4 -18
0 -19 -23 -4 -98 -6 -108 -22 -107 -8 1 -18 -7 -20 -17 -3 -11 -1 -17 3 -14 5
3 11 1 15 -5 3 -5 0 -10 -8 -10 -9 0 -14 -12 -14 -32 -1 -78 -9 -174 -16 -185
-4 -6 -2 -14 3 -16 6 -3 5 -4 -2 -3 -14 3 -18 35 -6 52 4 6 2 11 -5 11 -9 0
-13 -19 -13 -59 -1 -32 3 -58 7 -58 5 0 8 5 7 11 -2 6 4 14 12 16 13 4 13 3 0
-6 -8 -6 -10 -11 -5 -11 6 0 2 -7 -9 -15 -17 -13 -18 -15 -1 -31 14 -15 15
-19 4 -28 -17 -13 -24 -56 -10 -56 6 0 10 5 9 11 -2 6 4 14 12 16 13 4 13 3 0
-6 -8 -6 -10 -11 -5 -11 6 0 1 -7 -9 -15 -20 -15 -20 -15 0 -31 14 -11 15 -14
3 -11 -13 4 -16 -2 -15 -32 0 -21 6 -38 12 -38 6 0 11 6 11 13 0 7 -3 11 -7 9
-4 -2 -7 2 -7 10 0 8 5 16 11 18 7 3 12 -22 14 -72 3 -73 8 -160 11 -191 1 -8
8 -2 17 15 8 17 12 22 9 12 -3 -11 -2 -24 2 -30 4 -7 8 -32 9 -57 1 -25 3 -51
3 -59 1 -8 8 -11 20 -8 19 4 23 -18 23 -111 0 -18 4 -21 19 -17 18 6 24 -4 20
-29 -1 -4 3 -14 9 -21 6 -7 9 -18 8 -25 -2 -7 4 -15 12 -17 10 -3 11 -2 3 4
-7 5 -9 14 -4 22 6 9 10 6 16 -11 4 -12 6 -30 6 -40 -1 -9 3 -19 9 -23 5 -3
10 -1 10 5 0 6 5 8 10 5 8 -5 7 -12 -2 -23 -10 -12 -10 -14 -1 -8 9 4 14 1 15
-11 0 -10 2 -22 3 -28 2 -5 3 -14 4 -19 0 -5 9 -2 18 5 11 10 14 10 9 2 -4 -7
-2 -13 4 -13 6 0 10 -8 8 -17 -2 -12 4 -19 20 -21 16 -3 22 -10 22 -28 0 -14
4 -22 10 -19 6 3 10 0 10 -7 0 -9 3 -9 11 2 8 12 9 10 7 -10 -3 -21 2 -26 26
-28 18 -2 25 -7 17 -11 -9 -6 -8 -15 6 -39 10 -18 22 -32 28 -32 5 0 4 5 -3
12 -14 14 -16 28 -3 28 5 0 12 -11 15 -25 4 -17 12 -25 24 -23 11 2 18 -5 20
-19 2 -15 10 -23 23 -23 12 0 19 -7 19 -20 0 -15 7 -20 25 -20 18 0 25 -5 25
-20 0 -15 7 -20 25 -20 14 0 28 -7 32 -16 5 -13 7 -13 14 -2 6 9 9 7 9 -10 0
-12 3 -21 8 -20 19 5 53 -15 48 -28 -7 -17 5 -18 23 -1 11 9 13 9 7 0 -7 -13
0 -16 37 -16 10 0 17 -7 17 -18 0 -10 5 -21 10 -24 6 -3 10 2 10 11 0 16 1 16
12 2 15 -19 47 -26 66 -15 7 5 12 5 11 0 -1 -4 1 -16 5 -26 6 -13 20 -17 56
-17 40 0 50 -4 55 -20 5 -16 16 -20 51 -21 57 -2 61 -3 70 -11 10 -11 26 -10
20 0 -3 5 1 9 9 9 8 0 15 -4 15 -8 0 -4 11 -6 25 -3 14 2 25 0 25 -6 0 -6 -4
-8 -10 -5 -5 3 -10 2 -10 -3 0 -5 9 -12 20 -15 15 -4 20 0 21 16 0 22 0 22 9
1 8 -20 10 -20 831 -20 l824 1 -1 850 c-1 468 -3 860 -5 872 -2 12 -7 19 -11
17 -4 -3 -8 0 -8 6 0 6 -4 9 -8 6 -5 -3 -9 1 -9 9 0 8 4 12 9 9 4 -3 8 0 8 5
0 6 -4 11 -10 11 -5 0 -9 8 -8 18 1 9 0 39 0 65 -2 43 -4 47 -20 38 -14 -7
-19 -6 -19 4 0 8 4 12 9 9 4 -3 8 0 8 5 0 6 -4 11 -10 11 -5 0 -10 20 -10 45
0 29 -4 45 -12 45 -9 0 -8 4 2 11 12 9 11 10 -7 6 -13 -3 -23 -1 -23 4 0 5 5
9 11 9 6 0 4 7 -4 15 -9 8 -14 23 -13 32 2 11 -5 20 -18 24 -14 3 -21 12 -20
27 1 12 -3 22 -8 22 -5 0 -6 4 -3 10 7 11 -7 41 -21 43 -5 1 -10 9 -11 17 -1
7 -12 22 -25 32 l-23 17 23 -6 c13 -3 22 -1 22 6 0 7 -4 10 -9 7 -14 -9 -37 3
-39 19 -1 8 -3 22 -4 30 -1 11 -5 12 -12 5 -16 -16 -26 -12 -23 12 1 15 -5 24
-23 29 -21 6 -11 14 13 10 14 -2 7 17 -9 23 -8 3 -12 2 -9 -4 3 -6 1 -10 -4
-10 -6 0 -12 7 -12 15 -3 31 -4 35 -11 35 -5 0 -11 0 -14 0 -4 0 -1 -7 6 -15
11 -13 10 -14 -4 -9 -9 3 -16 15 -16 25 0 10 -5 19 -11 19 -6 0 -8 9 -3 22 6
20 5 21 -8 10 -12 -10 -18 -9 -28 3 -7 8 -9 15 -6 15 4 0 1 6 -6 14 -7 8 -16
12 -20 9 -5 -2 -8 0 -8 6 0 5 -8 8 -18 6 -10 -2 -19 2 -19 9 0 7 6 13 13 13 7
0 10 -5 7 -10 -3 -6 -1 -7 6 -3 17 11 3 26 -25 26 -17 0 -23 4 -18 12 5 8 2 9
-9 5 -9 -3 -19 -1 -23 5 -4 7 -3 8 4 4 7 -4 12 -3 12 2 0 4 -15 15 -32 23 -18
8 -32 19 -31 26 1 6 -12 14 -30 17 -23 5 -28 9 -19 15 10 6 6 11 -15 17 -32 9
-42 11 -63 13 -12 1 -13 3 -1 10 11 7 11 10 0 17 -13 8 -22 10 -69 13 -13 1
-20 8 -20 21 0 15 -7 20 -27 21 -16 1 -32 2 -38 4 -5 1 -17 3 -25 4 -9 1 -11
4 -5 9 25 18 10 27 -45 27 -34 0 -56 4 -53 9 4 5 -1 6 -11 3 -14 -5 -17 -3
-12 8 5 15 -3 19 -35 16 -9 -1 -28 3 -42 8 -19 8 -27 7 -27 -1 0 -6 -9 -3 -20
7 -11 10 -18 21 -15 25 2 4 -120 8 -273 8 -204 1 -285 -2 -307 -12z m535 -1
c0 -2 -6 -8 -13 -14 -10 -8 -14 -7 -14 2 0 8 6 14 14 14 7 0 13 -1 13 -2z m45
-15 c4 -6 -6 -10 -22 -10 -22 0 -25 2 -13 10 19 12 27 12 35 0z m-548 -82 c-3
-8 -6 -5 -6 6 -1 11 2 17 5 13 3 -3 4 -12 1 -19z m63 11 c0 -5 -5 -7 -12 -3
-7 4 -8 3 -4 -5 4 -6 11 -9 16 -6 4 3 11 -1 14 -7 3 -7 3 -3 0 10 -3 12 -1 22
5 22 6 0 12 -8 12 -17 1 -17 2 -17 6 0 4 17 20 18 196 16 185 -1 191 -2 170
-19 l-22 -18 27 2 c15 1 33 5 41 10 10 6 12 5 7 -2 -5 -9 11 -12 58 -12 42 0
66 -4 69 -12 4 -10 8 -9 16 2 8 11 11 12 11 2 0 -7 5 -10 12 -6 7 4 8 3 4 -5
-4 -6 -10 -10 -14 -7 -4 2 -16 0 -27 -4 -14 -5 -4 -8 30 -9 28 -1 59 -3 70 -5
11 -3 24 -5 29 -5 5 -1 3 -7 -3 -14 -19 -24 1 -27 21 -4 l19 22 -11 -23 c-6
-12 -7 -22 -3 -21 4 1 22 1 39 0 23 -1 31 -6 30 -17 -1 -17 18 -24 66 -26 22
-1 25 -5 18 -19 -7 -13 -5 -18 11 -22 18 -5 18 -3 7 11 -11 15 -10 14 8 -1 11
-9 24 -14 29 -10 4 5 5 2 1 -4 -4 -7 -3 -13 3 -13 5 0 12 6 15 13 3 6 4 1 3
-13 -1 -16 3 -25 13 -26 8 -1 21 -2 28 -3 6 0 12 -10 12 -21 0 -15 7 -20 26
-20 14 0 23 -4 19 -10 -8 -13 8 -13 21 0 7 7 11 7 11 -2 3 -45 8 -66 15 -62 5
3 6 9 4 13 -3 4 1 8 9 8 18 0 19 -9 3 -26 -11 -11 -10 -13 5 -8 9 4 17 2 17
-2 0 -5 10 -7 23 -4 22 5 22 5 2 -12 -17 -14 -17 -16 -3 -11 11 3 17 0 15 -7
-1 -7 8 -12 20 -11 16 1 20 -4 18 -18 -2 -10 2 -22 10 -25 8 -3 15 -9 15 -15
0 -5 -4 -7 -8 -4 -5 3 -9 -1 -9 -8 0 -7 7 -13 16 -13 40 0 42 -2 30 -24 -10
-20 -9 -21 14 -17 22 4 26 1 29 -21 2 -18 9 -26 21 -25 11 1 17 -5 17 -20 0
-12 6 -28 13 -35 6 -8 7 -11 1 -8 -6 3 -11 0 -11 -8 0 -8 3 -14 6 -13 19 2 31
-4 31 -15 0 -7 7 -23 16 -36 13 -18 18 -20 25 -10 5 8 9 9 9 3 0 -18 -12 -24
-26 -13 -8 7 -14 6 -20 -2 -4 -8 -3 -9 4 -5 7 4 12 2 12 -3 0 -6 7 -11 15 -11
10 0 16 -11 17 -32 2 -54 3 -55 22 -77 11 -12 21 -36 22 -54 1 -17 3 -38 3
-44 1 -7 6 -13 11 -13 12 0 9 22 -5 32 -6 5 -3 8 7 8 9 0 17 -8 17 -17 0 -58
15 -169 22 -171 13 -5 11 -29 -3 -36 -7 -3 -3 -3 10 0 12 3 22 1 22 -5 0 -6
-6 -11 -12 -11 -10 0 -10 -2 -1 -8 9 -6 11 -191 10 -787 l-2 -780 -745 -3
c-701 -2 -746 -1 -759 15 -11 15 -13 15 -8 2 4 -12 -1 -17 -19 -17 -13 0 -24
5 -24 10 0 5 4 7 9 4 5 -3 11 1 15 9 8 22 -17 14 -31 -10 -7 -11 -12 -14 -13
-7 0 6 -5 12 -11 12 -5 0 -8 -4 -5 -9 9 -14 -23 -6 -37 9 -10 12 -9 12 5 2 12
-10 18 -10 23 -2 4 6 14 9 22 6 8 -3 11 -2 8 3 -3 6 -13 10 -23 9 -59 -1 -122
7 -122 16 0 6 -5 4 -10 -4 -5 -8 -10 -10 -10 -5 0 6 -9 11 -20 12 -13 1 -18
-2 -14 -9 4 -6 3 -8 -4 -5 -5 4 -8 15 -6 25 4 13 -2 17 -23 18 -70 4 -100 10
-100 21 0 9 6 9 20 1 13 -6 17 -6 13 0 -3 6 0 13 6 16 7 3 4 5 -7 5 -57 -3
-96 2 -90 11 3 6 1 10 -4 10 -6 0 -11 -5 -11 -11 0 -5 -4 -7 -10 -4 -5 3 -10
15 -10 25 0 13 -6 18 -20 15 -11 -2 -22 1 -25 6 -4 5 -12 6 -18 2 -7 -4 -6 1
2 10 8 10 11 20 7 24 -3 3 -6 1 -6 -5 0 -7 -5 -12 -11 -12 -5 0 -7 5 -4 10 4
6 3 10 -2 9 -4 -1 -20 -1 -35 0 -21 1 -25 5 -21 21 5 17 0 20 -28 20 -46 0
-61 11 -41 30 14 13 15 12 9 -3 -3 -9 -2 -17 4 -17 6 0 9 8 7 17 -2 11 -13 17
-33 18 -31 0 -51 18 -40 35 3 6 -5 10 -19 10 -23 0 -31 9 -27 33 0 4 -8 7 -19
7 -13 0 -24 10 -30 25 -5 14 -15 24 -22 23 -7 -2 -14 7 -16 20 -2 14 -10 22
-24 22 -14 0 -18 5 -14 15 3 8 0 15 -5 15 -7 0 -9 11 -7 25 3 13 2 22 -3 20
-16 -10 -39 8 -39 31 0 17 -6 24 -20 24 -13 0 -20 7 -20 20 0 19 -11 25 -35
20 -5 -1 -7 2 -3 5 4 4 1 22 -7 41 -10 24 -11 34 -2 38 7 2 1 5 -13 5 -20 1
-26 7 -28 24 -4 55 -8 71 -20 75 -8 2 -10 -2 -5 -15 3 -10 3 -15 -1 -11 -4 3
-10 26 -12 50 -3 24 -7 52 -9 63 -2 11 -4 23 -4 28 -1 4 -11 7 -22 7 -17 0
-19 3 -10 14 9 10 9 16 1 21 -6 4 -10 17 -9 28 4 52 -1 69 -17 63 -8 -3 -12
-2 -9 4 3 6 2 10 -3 10 -5 0 -9 15 -9 34 1 21 5 32 12 28 5 -3 4 1 -3 10 -9
12 -12 72 -10 249 3 200 5 234 18 234 8 0 16 9 16 20 1 11 3 48 5 83 3 46 7
61 17 57 7 -3 10 0 7 5 -3 6 0 10 8 10 9 0 13 12 12 38 -1 20 5 45 13 55 10
11 11 17 4 17 -7 0 -12 4 -12 10 0 12 22 9 32 -5 4 -5 8 7 8 28 0 28 3 36 13
31 9 -6 9 -4 0 7 -18 18 -16 34 1 20 17 -15 28 -1 31 38 1 14 3 34 3 44 1 10
10 17 22 17 11 0 20 5 20 11 0 5 -6 7 -13 3 -6 -4 -4 2 6 14 11 12 16 26 11
34 -4 7 3 4 15 -7 12 -11 22 -15 21 -10 -2 6 -2 20 -1 33 1 19 5 22 21 17 21
-7 28 9 8 21 -7 5 -8 3 -3 -6 5 -9 4 -11 -4 -6 -15 10 -4 27 13 20 8 -3 13 2
13 13 0 36 3 41 24 36 14 -4 20 -1 19 8 -4 29 1 39 20 39 14 0 20 7 20 21 0
15 5 19 22 17 18 -2 23 2 23 21 0 18 6 25 23 26 12 1 28 8 35 15 9 10 9 11 0
6 -8 -4 -13 -1 -13 8 0 9 7 13 20 11 23 -4 48 30 27 38 -6 3 -3 5 8 5 11 0 29
3 40 6 11 2 24 5 28 5 4 1 7 9 5 19 -2 9 2 16 9 15 7 -2 23 1 37 7 17 6 26 5
29 -3 3 -7 4 -2 4 10 -1 17 -4 19 -14 11 -7 -6 -13 -8 -13 -4 0 3 0 9 0 13 0
4 19 8 42 10 28 2 49 10 60 23 11 13 32 22 60 24 53 5 50 4 43 16 -5 8 -11 8
-19 1 -9 -8 -13 -7 -13 4 0 7 3 14 6 13 3 0 8 1 11 2 5 3 49 7 88 9 15 1 22 7
22 21 0 11 5 20 11 20 5 0 8 -4 5 -8 -3 -5 1 -9 9 -9 8 0 12 4 9 9 -4 7 111
14 140 9 5 -1 6 5 3 13 -6 15 0 26 15 26 4 0 8 -5 8 -11z m-400 -128 c0 -6 -4
-13 -10 -16 -5 -3 -10 1 -10 9 0 9 5 16 10 16 6 0 10 -4 10 -9z m1237 -4 c0
-8 -6 -14 -14 -14 -9 0 -10 4 -2 14 6 7 12 13 14 13 1 0 2 -6 2 -13z m424
-360 c-10 -9 -11 -8 -5 6 3 10 9 15 12 12 3 -3 0 -11 -7 -18z m-2262 -40 c8
-10 7 -14 -2 -14 -8 0 -14 6 -14 14 0 7 1 13 2 13 2 0 8 -6 14 -13z m2491
-333 c0 -14 -3 -14 -15 -4 -8 7 -15 14 -15 16 0 2 7 4 15 4 8 0 15 -7 15 -16z
m-2580 -54 c0 -5 -4 -10 -10 -10 -5 0 -10 5 -10 10 0 6 5 10 10 10 6 0 10 -4
10 -10z m-43 -174 c1 -12 -1 -15 -4 -8 -3 6 -8 10 -12 8 -4 -3 -8 1 -8 8 0 22
23 14 24 -8z m2783 -55 c7 -15 7 -22 -2 -27 -7 -4 -10 -4 -6 1 4 4 3 16 -3 26
-5 11 -7 19 -5 19 3 0 10 -9 16 -19z m-2739 -694 c-13 -13 -26 -3 -16 12 3 6
11 8 17 5 6 -4 6 -10 -1 -17z m-31 -156 c0 -5 -7 -11 -14 -14 -10 -4 -13 -1
-9 9 6 15 23 19 23 5z m245 -231 c3 -5 -1 -10 -10 -10 -9 0 -13 5 -10 10 3 6
8 10 10 10 2 0 7 -4 10 -10z"/>
<path d="M1108 2813 c7 -3 16 -2 19 1 4 3 -2 6 -13 5 -11 0 -14 -3 -6 -6z"/>
<path d="M1339 2660 c-16 -9 -28 -18 -25 -21 3 -2 -9 -5 -27 -5 -111 -3 -117
-4 -117 -18 0 -20 -17 -29 -26 -15 -4 8 -3 9 4 5 8 -5 10 -2 6 8 -6 16 -25 23
-23 9 4 -26 -4 -33 -37 -33 -32 0 -70 -21 -58 -33 3 -2 -2 -7 -9 -10 -17 -6
-18 23 -2 36 6 5 4 7 -5 4 -8 -2 -15 -9 -15 -15 0 -21 -22 -32 -72 -34 -17 0
-19 -3 -10 -13 9 -9 14 -10 20 -1 6 7 7 6 4 -4 -4 -15 -7 -17 -52 -19 -18 -1
-25 -7 -25 -21 0 -15 -7 -20 -27 -21 -51 -2 -58 -4 -59 -14 -1 -18 -23 -60
-23 -47 -1 20 -21 13 -21 -8 0 -13 -7 -20 -19 -20 -10 0 -25 -8 -32 -17 -10
-11 -10 -14 -1 -9 6 4 12 2 12 -3 0 -11 -13 -15 -39 -12 -7 2 -10 -2 -7 -8 8
-12 -22 -43 -35 -36 -5 4 -9 -7 -9 -24 0 -16 -5 -33 -12 -37 -7 -4 -8 -3 -4 4
5 8 -1 12 -16 12 -18 0 -20 -2 -8 -10 12 -8 12 -10 1 -10 -8 0 -11 -3 -8 -7 4
-3 -1 -12 -11 -20 -9 -8 -12 -12 -5 -9 13 7 12 -19 -2 -31 -4 -4 -5 -3 -2 3 4
7 0 14 -8 18 -8 3 -14 2 -14 -2 6 -37 -3 -62 -21 -62 -14 0 -20 -7 -20 -23 0
-13 -6 -29 -13 -36 -9 -11 -9 -12 0 -7 8 5 11 2 7 -7 -3 -8 -12 -14 -21 -13
-12 1 -17 -10 -19 -44 -3 -57 -2 -54 -18 -41 -18 15 -30 -11 -13 -29 9 -10 9
-11 0 -6 -12 6 -18 -33 -16 -101 0 -6 -5 -9 -12 -7 -13 5 -16 34 -3 34 4 0 8
5 8 12 0 9 -3 9 -12 0 -15 -15 -21 -52 -8 -52 6 0 10 -5 10 -11 0 -5 -4 -7
-10 -4 -9 5 -13 -28 -13 -98 0 -12 -5 -16 -16 -13 -13 5 -12 3 2 -8 14 -10 15
-15 5 -19 -10 -4 -10 -6 0 -6 9 -1 10 -6 2 -20 -7 -14 -6 -21 3 -24 6 -2 9 -8
5 -12 -4 -4 -15 -2 -24 6 -16 13 -16 12 -4 -8 8 -12 16 -20 20 -18 3 2 6 -8 6
-21 1 -13 -1 -24 -5 -24 -11 0 -10 -33 2 -47 6 -9 6 -13 -2 -13 -8 0 -9 -5 -3
-16 14 -24 3 -54 -16 -48 -10 3 -7 -1 6 -7 12 -7 22 -16 22 -21 0 -5 -5 -6
-12 -2 -7 5 -8 3 -2 -7 10 -17 11 -19 12 -92 2 -55 3 -58 25 -52 20 5 20 5 -3
-9 -14 -9 -19 -15 -12 -16 6 0 11 -6 10 -12 -2 -7 3 -12 10 -10 7 1 13 -9 13
-23 1 -14 3 -34 4 -45 1 -11 3 -26 4 -32 1 -9 4 -9 11 2 13 21 23 6 25 -42 2
-35 5 -43 21 -43 11 0 18 -6 16 -14 -2 -7 5 -23 15 -34 10 -11 12 -17 4 -12
-9 5 -12 3 -9 -6 3 -8 11 -13 17 -11 13 3 19 -10 24 -53 2 -20 10 -31 23 -34
23 -4 37 -23 23 -32 -6 -3 -4 -10 4 -18 11 -9 17 -8 28 6 12 15 12 16 -1 8
-12 -7 -13 -6 -3 7 9 10 13 55 14 132 0 64 4 114 8 112 4 -3 8 1 8 9 0 8 -4
12 -9 9 -4 -3 -8 2 -8 11 0 9 5 13 10 10 6 -3 10 1 10 9 0 9 -4 16 -10 16 -5
0 -10 4 -10 8 0 5 7 9 15 9 8 0 13 -3 11 -6 -2 -3 0 -15 4 -26 4 -12 8 10 9
55 1 46 6 77 14 82 9 6 8 8 -3 8 -9 1 -5 6 10 15 23 13 23 14 5 16 -17 1 -16
2 5 9 14 4 19 8 12 9 -7 1 -10 6 -6 12 6 11 10 29 13 72 0 10 9 17 21 17 16 0
20 7 20 31 0 21 4 28 13 23 9 -6 9 -4 -1 8 -10 13 -10 17 3 22 11 4 14 2 9 -6
-4 -7 -3 -8 4 -4 7 4 12 18 12 30 0 13 8 30 17 37 11 10 14 10 9 2 -4 -7 -2
-13 3 -13 6 0 12 7 12 15 3 35 6 40 19 37 12 -3 13 -1 2 9 -18 19 -15 29 8 29
13 0 20 7 20 20 0 13 7 20 20 20 14 0 20 7 20 23 0 26 32 62 44 50 4 -5 6 -1
4 7 -2 10 4 15 18 14 14 -1 20 5 21 20 3 49 10 61 32 58 12 -2 21 0 20 5 -5
27 3 43 22 43 16 0 19 4 14 20 -4 12 -2 20 5 20 6 0 9 4 6 8 -3 5 1 9 9 9 8 0
12 -4 9 -9 -3 -4 0 -8 5 -8 6 0 12 12 12 28 2 46 4 52 14 53 5 0 11 -5 13 -13
2 -9 0 -8 -8 2 -9 12 -11 12 -8 1 7 -25 28 -24 29 1 1 13 2 28 4 33 1 6 3 16
3 23 1 6 5 11 10 11 19 -3 28 2 29 19 3 43 8 60 15 56 5 -3 15 2 24 10 8 9 11
16 6 16 -9 0 -6 40 5 70 3 8 7 22 7 30 1 8 7 15 15 15 8 0 15 8 17 18 1 11 6
22 10 25 4 4 4 -1 1 -10 -3 -10 -2 -20 3 -23 10 -6 14 7 11 32 -1 6 2 14 7 16
4 3 7 -11 6 -31 -3 -48 -2 -46 -17 -33 -8 6 -17 8 -20 4 -4 -3 2 -12 13 -20
11 -8 20 -18 20 -23 0 -5 -12 2 -27 16 -14 13 -29 22 -32 18 -3 -3 1 -11 10
-17 9 -7 14 -22 12 -35 -2 -16 1 -21 9 -16 10 6 11 4 1 -7 -7 -7 -13 -30 -13
-51 0 -32 -3 -38 -21 -38 -11 0 -18 -3 -16 -7 9 -15 -13 -54 -24 -47 -8 4 -9
3 -5 -5 4 -6 11 -9 15 -7 4 3 8 -1 8 -9 0 -9 -10 -15 -21 -15 -15 0 -21 -7
-22 -22 -1 -37 -8 -53 -26 -60 -10 -4 -18 -17 -18 -28 0 -13 -7 -20 -20 -20
-14 0 -20 -7 -20 -23 0 -31 -10 -40 -28 -24 -13 10 -14 8 -10 -15 7 -35 -13
-43 -45 -18 -24 19 -37 17 -37 -4 0 -7 3 -7 8 1 5 8 18 3 42 -17 30 -25 26
-37 -6 -18 -10 7 -12 2 -16 -42 -2 -18 -3 -18 -21 -2 -10 9 -18 12 -17 7 6
-29 -1 -66 -12 -64 -29 3 -36 -2 -34 -26 3 -22 0 -24 -22 -18 -23 5 -24 4 -11
-9 8 -9 18 -13 23 -10 5 3 6 0 2 -7 -6 -9 -11 -9 -22 0 -11 9 -14 6 -15 -17
-1 -16 -1 -33 0 -37 1 -5 -2 -6 -7 -3 -16 10 -33 -12 -35 -46 -1 -20 -4 -35
-7 -33 -12 8 -37 -23 -38 -45 0 -45 -2 -50 -21 -50 -13 0 -19 -7 -19 -22 -2
-66 -5 -76 -22 -73 -17 3 -18 2 -23 -132 -1 -23 -5 -45 -9 -49 -4 -3 -3 -14 2
-24 8 -14 5 -17 -18 -13 -15 1 -21 0 -14 -3 6 -3 9 -11 5 -17 -10 -16 -10
-188 0 -194 4 -2 5 -9 1 -14 -9 -15 -12 -59 -4 -59 4 0 7 -10 6 -22 0 -11 5
-22 12 -24 7 -1 8 0 2 3 -7 3 -7 10 2 21 11 13 11 14 -1 7 -10 -5 -12 -4 -7 3
12 19 24 14 24 -10 0 -67 5 -84 23 -84 16 0 19 8 20 46 2 174 5 220 12 220 4
0 5 6 1 13 -6 9 -5 9 8 0 8 -7 18 -10 21 -6 4 3 -1 12 -11 20 -14 11 -15 12
-1 7 13 -4 16 1 14 25 -1 17 1 31 5 31 5 0 6 9 3 20 -5 18 5 25 30 21 7 -1 12
48 7 78 -1 9 4 12 15 8 18 -7 23 3 29 53 2 19 8 36 15 38 7 2 9 -3 5 -15 -6
-16 -5 -16 9 2 8 11 13 27 12 37 -2 10 0 18 5 18 4 0 7 8 5 18 -3 22 4 34 16
26 6 -4 6 -11 -1 -19 -8 -9 -8 -15 0 -20 5 -3 11 -4 11 -1 1 3 3 11 4 16 1 6
3 24 4 40 1 23 6 30 21 30 23 0 26 10 8 29 -11 10 -10 12 2 9 10 -2 16 6 18
25 2 15 7 27 12 27 5 0 7 -8 5 -18 -2 -11 3 -19 11 -19 10 0 11 4 3 14 -6 7
-7 13 -2 13 5 0 10 11 11 25 4 52 6 64 12 63 22 -2 30 5 30 27 0 28 16 31 44
10 15 -12 17 -17 7 -29 -7 -8 -13 -30 -14 -49 -1 -26 -6 -33 -16 -29 -11 4
-11 7 -3 10 7 2 10 8 6 13 -12 19 -20 7 -23 -33 -2 -50 -7 -59 -25 -52 -8 3
-17 1 -21 -5 -3 -6 1 -11 9 -11 9 0 16 -4 16 -10 0 -5 -6 -9 -12 -7 -8 1 -13
-8 -13 -23 0 -18 -5 -25 -20 -25 -12 0 -19 -6 -17 -14 1 -7 -2 -19 -8 -26 -6
-7 -7 -21 -3 -31 6 -17 5 -17 -10 -5 -10 8 -20 11 -24 7 -3 -3 -1 -6 5 -6 7 0
12 -5 12 -11 0 -5 -4 -7 -10 -4 -9 6 -15 -27 -12 -68 1 -10 -2 -16 -6 -13 -13
8 -35 -11 -37 -31 0 -10 -5 -25 -10 -32 -5 -9 -4 -12 2 -8 5 3 10 0 10 -9 0
-9 -7 -12 -19 -8 -13 4 -16 1 -12 -10 4 -9 1 -23 -6 -31 -6 -8 -12 -41 -13
-75 -1 -50 -4 -60 -19 -60 -10 0 -18 -4 -18 -10 0 -5 5 -10 10 -10 6 0 10 -5
10 -11 0 -5 -4 -7 -10 -4 -6 4 -10 -28 -10 -90 0 -53 4 -94 8 -91 5 3 9 -1 9
-9 0 -8 -4 -12 -9 -9 -4 3 -8 -2 -8 -11 0 -10 5 -13 12 -9 7 5 8 3 2 -7 -18
-29 -13 -44 7 -20 17 20 19 21 18 5 -5 -56 1 -74 25 -74 19 0 24 -4 21 -20 -4
-19 5 -24 33 -21 7 1 12 -9 12 -24 0 -22 3 -24 18 -16 13 7 23 6 31 -2 9 -9
14 -8 21 3 7 10 10 11 10 3 0 -7 11 -13 25 -13 19 0 25 -5 25 -22 0 -18 2 -20
9 -8 6 8 7 18 4 24 -3 5 -1 6 5 2 6 -4 9 -13 5 -22 -3 -8 -2 -14 3 -13 5 1 30
1 55 0 38 -1 48 -5 52 -21 5 -21 27 -28 27 -9 0 5 -5 7 -10 4 -5 -3 -10 1 -10
9 0 8 8 14 19 13 10 0 18 -8 17 -16 -1 -13 15 -16 78 -19 55 -2 82 1 87 10 11
17 2 28 -24 28 -17 0 -19 -2 -7 -9 8 -6 18 -7 24 -4 5 3 6 1 2 -5 -5 -9 -13
-9 -28 -1 -21 11 -21 12 -3 25 10 8 13 14 7 14 -7 0 -11 3 -11 8 4 25 -1 34
-15 23 -12 -10 -16 -6 -25 25 -6 20 -8 40 -6 44 2 4 -2 7 -10 7 -8 0 -11 -5
-8 -10 3 -6 1 -7 -5 -3 -7 4 -12 21 -12 37 0 22 -4 29 -16 27 -12 -2 -18 6
-21 26 -2 16 -8 37 -14 47 -6 12 -5 20 1 24 6 4 7 12 3 18 -4 7 -6 22 -4 35 1
12 -1 22 -6 21 -30 -5 -32 3 -31 196 1 111 5 195 10 195 5 0 6 -6 3 -12 -4 -7
1 -4 9 6 14 18 18 37 19 114 1 19 8 26 28 24 3 -1 6 4 7 11 1 7 4 23 6 37 2
14 5 40 5 58 1 25 5 32 17 30 10 -2 19 3 22 11 3 9 0 11 -9 6 -11 -6 -12 -5
-1 6 6 7 12 28 12 47 0 24 4 31 13 26 10 -6 10 -4 0 7 -7 7 -13 17 -13 21 0 5
6 8 13 7 25 -3 38 1 32 11 -3 6 -11 10 -16 10 -6 0 -7 -5 -3 -12 4 -7 3 -8 -5
-4 -15 10 -9 31 9 31 11 0 15 22 17 90 4 113 4 115 15 109 5 -4 7 -13 3 -23
-5 -13 -4 -13 6 -4 10 10 9 16 -3 30 -24 29 -33 47 -18 38 9 -6 11 -4 4 6 -4
8 -9 25 -10 39 -1 14 -2 33 -3 42 0 9 -10 20 -21 23 -22 7 -27 39 -8 51 6 4 8
3 5 -3 -3 -5 0 -10 8 -10 18 0 18 2 5 28 -6 11 -7 19 -3 18 4 -1 23 -1 41 0
29 1 33 4 28 24 -3 12 -3 16 0 10 4 -10 11 -9 29 3 13 9 29 12 36 8 7 -4 10
-2 7 7 -6 19 16 39 46 41 14 1 26 6 26 11 0 4 5 5 10 2 6 -4 9 -1 8 7 -2 9 15
14 65 16 49 2 67 7 67 17 0 8 -5 17 -11 20 -13 9 -89 12 -89 4 0 -3 -15 -4
-34 -3 -21 2 -39 -3 -46 -11 -12 -15 0 -22 14 -8 3 4 13 8 20 9 15 2 16 -20 1
-33 -4 -4 -5 -2 0 6 5 10 4 12 -4 7 -6 -4 -9 -12 -6 -17 9 -14 -5 -11 -22 6
-8 8 -18 13 -22 11 -4 -3 -8 5 -8 17 -2 17 0 19 7 7 9 -14 14 -7 11 13 0 4 3
7 9 7 5 0 10 18 10 40 0 37 2 40 28 41 15 1 34 1 42 0 13 -2 13 -1 0 8 -8 5
-17 8 -20 6 -4 -2 -7 2 -7 9 0 7 6 13 13 13 7 0 11 -4 8 -9 -3 -4 0 -8 5 -8 6
0 11 6 11 14 0 9 9 13 25 11 21 -2 25 2 25 22 0 13 4 21 10 18 5 -3 22 1 37
10 16 9 20 14 11 11 -12 -3 -15 -1 -11 10 7 19 38 14 39 -6 1 -8 2 -27 2 -41
2 -19 7 -26 20 -25 15 1 17 -11 18 -116 1 -65 -2 -118 -7 -118 -5 0 -9 5 -9
10 0 6 -4 10 -9 10 -8 0 -10 -7 -14 -85 -1 -22 -6 -43 -12 -47 -6 -5 -5 -8 3
-8 6 0 12 -5 12 -11 0 -5 -5 -7 -11 -3 -8 4 -8 1 0 -14 6 -12 11 -25 10 -29
-3 -19 2 -31 17 -37 8 -3 12 -2 9 4 -3 6 -1 10 5 10 6 0 10 -8 9 -17 -3 -34 1
-42 21 -38 13 3 20 -2 20 -12 0 -12 -3 -13 -14 -4 -9 7 -17 8 -20 3 -6 -10 39
-27 59 -23 6 0 3 -4 -6 -11 -15 -12 -15 -15 -1 -28 14 -13 15 -12 10 2 -4 9
-1 18 5 21 11 4 13 -9 8 -55 -1 -4 -19 -11 -41 -14 -22 -4 -40 -10 -40 -15 0
-5 3 -8 8 -8 19 3 32 -2 32 -12 0 -8 -4 -8 -14 0 -21 18 -28 -1 -28 -75 0 -49
-4 -64 -15 -64 -9 0 -11 5 -7 13 5 7 0 6 -11 -3 -10 -8 -27 -14 -37 -12 -15 3
-19 -1 -16 -15 2 -10 12 -18 23 -18 16 0 20 -7 20 -35 1 -46 -3 -57 -20 -57
-8 0 -11 5 -8 11 4 7 1 7 -6 0 -7 -7 -13 -29 -14 -49 -1 -21 -3 -33 -5 -26 -2
6 -9 8 -14 5 -6 -4 -8 -2 -4 4 3 6 3 13 -2 16 -4 2 -8 -20 -7 -50 0 -50 8 -66
23 -48 4 4 1 4 -5 0 -7 -4 -13 -3 -13 2 0 6 6 12 13 15 10 4 13 -3 12 -21 -1
-19 -6 -26 -18 -24 -9 2 -17 -2 -17 -9 0 -6 -8 -9 -19 -6 -15 3 -18 1 -14 -12
4 -14 3 -14 -9 -1 -11 14 -26 18 -75 22 -7 1 -13 10 -13 20 0 12 -7 18 -24 18
-14 0 -28 5 -31 10 -3 6 -12 10 -18 10 -7 0 -6 -4 3 -10 9 -6 10 -10 3 -10 -7
0 -17 9 -23 20 -9 17 -8 19 7 14 14 -5 15 -4 4 4 -7 5 -21 9 -30 7 -13 -1 -16
-16 -18 -68 -1 -58 1 -67 16 -67 17 0 19 -4 22 -55 1 -17 7 -25 20 -25 21 0
34 -16 19 -25 -16 -10 -1 -25 24 -25 22 0 24 -4 28 -54 1 -14 4 -24 8 -23 16
3 69 -16 64 -24 -4 -6 -10 -6 -18 0 -9 8 -13 7 -13 -3 0 -8 8 -13 19 -11 10 2
18 0 18 -5 0 -5 10 -10 23 -12 15 -2 21 -9 19 -20 -2 -13 4 -18 22 -18 18 0
25 -6 28 -23 2 -14 10 -22 23 -22 13 0 21 -8 23 -22 2 -14 8 -20 18 -16 7 3
11 10 7 17 -3 6 -2 7 3 3 5 -5 9 -14 9 -20 0 -7 6 -13 13 -13 6 -1 17 -2 23
-3 5 0 7 -6 3 -12 -5 -8 -9 -8 -14 1 -5 9 -9 9 -14 1 -4 -6 -4 -11 1 -12 4 0
17 -3 28 -5 11 -3 28 -5 37 -5 11 0 15 -7 13 -20 -3 -17 4 -21 32 -18 4 0 10
-8 14 -18 7 -16 8 -16 8 -1 1 12 6 15 17 11 11 -4 12 -9 5 -16 -6 -6 -11 -16
-11 -21 0 -6 5 -4 11 4 8 11 12 12 16 3 2 -7 15 -13 28 -13 18 0 22 -4 18 -20
-4 -14 0 -20 11 -20 10 0 13 6 9 18 -5 16 -5 15 8 -1 8 -10 23 -19 34 -21 11
-2 20 -11 20 -21 0 -10 8 -19 18 -21 15 -2 16 0 5 14 -11 15 -10 14 8 -1 11
-9 28 -17 37 -17 11 0 17 -8 17 -21 0 -14 5 -19 18 -17 11 2 27 -4 37 -12 11
-8 16 -10 11 -3 -5 9 -2 11 8 7 9 -3 14 -10 11 -14 -8 -13 10 -21 55 -24 22
-2 44 -7 48 -11 4 -5 2 -5 -5 -1 -6 3 -15 1 -19 -5 -4 -8 -9 -7 -16 2 -8 11
-9 11 -5 -1 2 -8 9 -15 14 -15 6 0 15 -3 18 -7 4 -4 16 -3 26 3 11 5 19 6 18
2 -3 -20 2 -27 11 -13 5 8 12 11 16 7 4 -3 1 -15 -7 -24 -10 -14 -10 -16 0 -6
7 6 20 9 29 6 9 -4 13 -2 9 4 -3 5 1 10 9 10 10 0 11 -4 4 -11 -17 -17 -12
-22 26 -24 35 -3 36 -3 33 35 -3 46 -7 55 -20 47 -6 -4 -6 -11 2 -20 10 -12 9
-13 -5 -8 -9 3 -17 15 -17 25 -2 28 -6 59 -9 62 -1 1 -3 12 -4 24 -2 13 -6 26
-11 30 -4 5 -6 0 -2 -9 3 -9 0 -18 -6 -21 -12 -4 -15 19 -21 140 -1 23 -1 23
-16 3 -14 -19 -15 -17 -17 28 -1 44 -2 303 -1 522 0 52 -1 155 -2 228 -3 114
-5 132 -19 130 -9 -2 -16 4 -16 14 0 9 -4 20 -8 24 -4 4 -2 13 4 21 6 7 8 13
3 13 -5 0 -10 17 -10 39 -1 54 -11 76 -27 62 -11 -8 -14 -1 -14 36 -1 41 -16
68 -33 58 -5 -3 -10 31 -13 83 0 8 -4 9 -10 3 -15 -15 -35 -2 -30 20 3 11 0
19 -6 19 -9 0 -9 5 -1 20 6 11 7 20 3 19 -30 -5 -43 3 -43 26 0 19 -5 25 -17
23 -12 -2 -19 4 -21 20 -3 16 -10 22 -28 22 -13 0 -24 5 -24 11 0 5 6 7 13 3
9 -6 9 -5 0 8 -7 8 -10 17 -8 20 3 3 -6 4 -20 3 -21 -3 -25 1 -25 21 0 18 -5
24 -17 22 -12 -2 -19 4 -21 20 -3 17 2 22 17 22 14 0 21 -6 21 -20 0 -18 16
-26 44 -21 5 1 6 -5 3 -14 -4 -9 -1 -15 9 -15 8 0 13 4 10 8 -3 5 1 9 9 9 12
0 12 -4 -2 -21 -10 -12 -14 -18 -9 -13 5 4 20 0 32 -8 17 -11 24 -11 27 -2 2
6 4 -3 5 -22 1 -38 16 -60 27 -40 5 7 4 10 -2 6 -5 -3 -10 0 -10 8 0 8 4 15 9
15 7 0 12 -15 9 -32 0 -5 4 -8 9 -8 6 0 10 -9 10 -20 0 -12 7 -20 16 -20 13 0
14 3 5 14 -8 10 -9 16 -1 21 6 4 10 3 9 -2 -1 -4 0 -11 1 -15 5 -17 8 -29 9
-48 1 -14 7 -20 19 -18 11 2 18 -4 20 -19 2 -12 12 -25 23 -28 10 -4 20 -16
21 -28 0 -12 2 -28 2 -36 1 -8 11 -17 23 -22 15 -5 23 -17 23 -31 0 -50 3 -57
20 -48 11 6 17 5 18 -3 7 -106 11 -132 18 -129 13 3 12 24 0 42 -9 13 -9 13 6
2 9 -7 15 -22 13 -32 -2 -11 0 -22 4 -24 4 -3 7 -21 6 -41 0 -19 4 -35 10 -35
5 0 3 -5 -5 -10 -8 -5 -10 -10 -5 -10 13 0 13 -49 0 -70 -7 -13 -6 -13 7 -2
13 10 17 10 21 0 3 -7 4 -3 4 9 -1 12 -5 19 -10 16 -5 -3 -4 4 2 16 7 12 9 27
5 33 -4 6 -3 8 3 5 8 -5 15 -104 16 -217 0 -19 2 -30 4 -23 2 7 10 11 16 9 7
-1 9 -1 5 1 -5 3 -8 11 -8 19 0 9 5 12 10 9 6 -3 10 -2 10 4 0 5 -6 12 -12 14
-10 4 -10 6 0 6 9 1 12 33 12 125 0 108 -2 125 -17 128 -12 2 -17 15 -19 46
-2 25 1 40 7 36 5 -3 7 -10 4 -15 -3 -5 1 -6 10 -3 13 6 13 8 -3 23 -18 15
-24 53 -23 134 0 12 -8 17 -27 17 -15 0 -22 4 -17 8 13 9 17 32 6 32 -5 0 -8
8 -6 18 3 20 -14 44 -26 36 -5 -3 -6 3 -2 12 4 11 8 13 11 6 2 -7 8 -12 14
-12 7 0 7 5 -1 13 -6 8 -7 17 -3 22 4 4 -3 2 -16 -4 -22 -12 -23 -11 -21 11 2
14 -6 36 -19 52 -12 16 -22 37 -22 47 0 18 -12 24 -35 19 -5 -1 -7 2 -3 6 4 4
2 14 -5 22 -10 13 -9 14 3 7 12 -6 13 -5 3 6 -7 7 -13 21 -13 31 0 10 -3 17
-7 17 -19 -3 -33 2 -33 12 0 5 6 7 13 4 6 -4 1 3 -12 14 -12 12 -27 18 -32 15
-5 -3 -9 7 -9 21 0 19 -5 25 -17 23 -12 -2 -19 4 -21 20 -2 14 -10 22 -23 22
-17 0 -24 11 -20 33 1 7 -14 11 -36 8 -6 -1 -13 9 -15 21 -2 13 -10 23 -18 23
-8 0 -19 10 -25 23 -5 12 -15 20 -22 18 -7 -3 -15 -1 -18 5 -4 5 -10 7 -15 4
-5 -3 -11 -1 -15 5 -4 6 -11 8 -16 5 -5 -3 -6 1 -3 9 5 12 -1 16 -21 16 -19 0
-26 4 -22 14 3 8 -1 17 -10 20 -11 4 -14 2 -10 -9 4 -8 2 -17 -4 -20 -5 -4 -9
-3 -8 2 5 32 -3 43 -31 43 -24 0 -30 4 -28 18 2 10 -3 17 -12 17 -9 0 -14 -8
-12 -20 2 -16 1 -17 -7 -5 -5 8 -7 18 -5 22 3 5 -7 8 -23 8 -47 0 -63 3 -63
13 0 5 -8 3 -17 -4 -16 -13 -17 -12 -4 4 9 12 21 15 35 11 12 -4 17 -3 13 2
-5 5 -33 9 -63 11 -31 1 -61 6 -68 12 -7 6 -16 8 -20 4 -12 -12 -36 -12 -36 0
0 7 -5 5 -10 -3 -5 -8 -10 -10 -10 -4 0 5 -7 19 -16 30 -8 10 -13 13 -9 7 3
-7 1 -21 -4 -30 -6 -10 -11 -13 -11 -8 0 6 -9 11 -20 12 -11 1 -18 -2 -15 -7
3 -6 -1 -7 -11 -3 -14 5 -14 7 -2 14 9 5 26 6 38 4 14 -3 20 -1 14 4 -16 16
-59 17 -72 1 -8 -8 -11 -9 -7 -2 7 13 5 13 -98 16 -44 1 -78 -4 -98 -14z m53
-4 c7 4 8 2 4 -5 -4 -6 -12 -9 -17 -6 -5 4 -9 2 -9 -2 0 -5 -9 -9 -20 -9 -11
0 -20 4 -20 8 0 8 16 12 33 9 4 0 7 5 8 12 0 9 2 9 6 -1 2 -6 10 -9 15 -6z
m82 3 c-2 -4 2 -10 8 -12 8 -4 9 -6 2 -6 -6 -1 -17 5 -23 12 -8 10 -7 14 4 14
8 0 12 -4 9 -8z m41 1 c3 -5 1 -10 -4 -10 -6 0 -11 5 -11 10 0 6 2 10 4 10 3
0 8 -4 11 -10z m-703 -225 c0 -5 -5 -10 -11 -11 -8 -2 -7 -1 0 3 8 4 7 8 -2
15 -11 8 -11 9 -1 6 8 -2 14 -8 14 -13z m509 -128 c-10 -9 -11 -8 -5 6 3 10 9
15 12 12 3 -3 0 -11 -7 -18z m-366 -87 c-1 -8 -10 -14 -20 -12 -9 2 -14 -1
-11 -6 3 -5 -1 -15 -9 -22 -7 -6 -12 -17 -9 -24 3 -7 -2 -13 -10 -13 -8 0 -12
6 -8 15 3 10 1 13 -6 8 -7 -4 -12 -21 -12 -38 0 -22 -4 -29 -15 -25 -17 7 -26
-6 -31 -42 -8 -63 -17 -81 -30 -60 -5 8 -3 10 6 4 9 -5 11 -4 6 3 -12 20 -24
13 -25 -15 -1 -59 -2 -61 -23 -55 -18 4 -20 2 -16 -16 4 -12 2 -25 -4 -28 -5
-3 -7 -15 -5 -26 4 -14 1 -18 -8 -14 -14 5 -39 -17 -29 -26 3 -4 1 -22 -4 -41
-7 -25 -6 -39 2 -47 8 -8 7 -10 -6 -5 -10 4 -18 12 -18 18 0 7 -5 6 -12 -2
-11 -11 -10 -14 1 -18 8 -4 10 -8 3 -12 -6 -4 -12 -25 -13 -48 -2 -23 -5 -41
-8 -41 -26 2 -31 -6 -31 -48 0 -33 -3 -43 -12 -38 -9 6 -9 3 0 -9 16 -19 6
-41 -15 -33 -8 3 -11 1 -8 -4 3 -6 1 -10 -6 -10 -7 0 -5 -8 6 -20 14 -15 15
-19 4 -15 -12 5 -15 -4 -14 -50 1 -31 -2 -58 -6 -61 -4 -2 -6 -17 -3 -32 3
-19 2 -23 -5 -12 -5 8 -7 18 -4 24 3 5 1 6 -5 2 -6 -3 -9 -15 -7 -26 2 -11 -1
-22 -6 -25 -5 -4 -6 -11 -3 -17 4 -7 2 -8 -5 -4 -7 5 -9 12 -3 19 12 18 8 62
-8 83 -14 17 -13 18 1 7 14 -11 15 -9 10 23 -9 51 -1 174 10 174 6 0 7 -5 3
-12 -5 -7 -3 -8 6 -3 10 6 10 11 -3 20 -19 14 -23 35 -6 35 5 0 7 -4 4 -10 -3
-5 -1 -10 4 -10 6 0 11 5 11 11 0 5 6 7 13 3 9 -6 9 -5 0 8 -7 8 -9 18 -5 22
4 4 8 22 8 39 1 18 2 50 3 72 1 23 5 35 9 28 14 -21 31 2 33 45 2 33 7 42 21
42 17 0 20 7 21 66 1 14 6 20 15 17 7 -3 11 -12 8 -20 -4 -8 -1 -11 5 -8 6 4
8 13 5 21 -3 7 -1 16 5 19 5 4 7 10 4 15 -3 5 -1 11 4 15 6 3 8 12 5 19 -3 9
3 17 15 21 18 5 25 21 23 46 -1 3 6 6 14 6 8 0 14 -4 14 -9 0 -4 4 -8 8 -8 4
0 8 12 7 27 0 20 6 29 25 34 14 4 21 7 17 8 -4 1 -3 10 3 21 6 11 15 18 21 15
5 -4 11 1 14 9 14 45 17 51 22 39 7 -20 32 -15 28 5 -3 24 2 31 24 29 11 0 18
-8 16 -17z m-85 -141 c0 -5 -9 -9 -20 -9 -13 0 -18 5 -14 14 6 15 34 11 34 -5z
m670 -33 c0 -3 -4 -8 -10 -11 -5 -3 -10 -1 -10 4 0 6 5 11 10 11 6 0 10 -2 10
-4z m750 -40 c0 -3 -4 -8 -10 -11 -5 -3 -10 -1 -10 4 0 6 5 11 10 11 6 0 10
-2 10 -4z m-140 -166 c5 9 9 9 14 1 4 -6 2 -11 -3 -11 -6 0 -11 -5 -11 -11 0
-5 5 -7 12 -3 7 5 8 3 3 -6 -6 -10 -11 -9 -22 5 -7 11 -13 24 -12 29 0 6 3 5
6 -3 4 -10 7 -10 13 -1z m440 -20 c0 -5 -2 -10 -4 -10 -3 0 -8 5 -11 10 -3 6
-1 10 4 10 6 0 11 -4 11 -10z m-392 -23 c-1 -2 2 -10 8 -18 17 -22 26 -51 12
-43 -7 5 -8 3 -3 -5 4 -7 15 -11 24 -8 18 4 19 1 22 -48 1 -20 4 -23 14 -15
15 13 30 -3 20 -20 -3 -5 -3 -10 2 -10 4 0 7 -23 7 -50 -1 -43 2 -53 24 -70
13 -11 20 -20 14 -20 -6 0 -14 5 -17 10 -3 6 -9 10 -13 10 -6 0 -7 -123 -2
-294 0 -12 5 -16 15 -12 8 3 15 1 15 -4 0 -6 -8 -10 -17 -10 -15 0 -18 -8 -16
-47 1 -27 2 -48 3 -48 1 0 3 -10 6 -23 3 -15 0 -21 -7 -16 -8 4 -8 0 0 -15 13
-24 23 -28 15 -6 -4 8 -1 15 4 15 16 0 24 -18 12 -25 -6 -4 -7 -12 -3 -18 13
-21 10 -47 -6 -60 -12 -9 -13 -9 -7 1 4 6 3 12 -2 12 -5 0 -12 -9 -15 -20 -3
-12 -1 -17 5 -14 16 10 37 -27 24 -42 -6 -6 -14 -10 -18 -8 -4 2 -9 0 -12 -5
-11 -17 15 -23 27 -7 10 13 12 -4 13 -84 2 -103 8 -126 24 -100 10 16 11 15
15 -40 1 -19 0 -29 -2 -22 -3 6 -9 9 -14 6 -6 -3 -5 -12 3 -22 10 -14 10 -15
-2 -5 -15 14 -23 46 -9 37 5 -3 9 -3 9 0 0 2 3 13 6 23 5 15 4 16 -6 3 -9 -12
-13 -12 -17 -2 -4 10 -8 10 -21 0 -16 -12 -16 -11 -2 6 14 18 13 19 -2 13 -17
-6 -23 3 -19 26 1 4 -3 16 -9 27 -7 13 -7 21 1 26 8 4 7 9 -2 14 -10 7 -10 12
2 26 13 16 12 16 -10 5 -15 -8 -21 -9 -17 -2 4 6 3 11 -1 11 -10 0 -12 46 -13
453 -2 315 -2 327 -21 327 -22 0 -24 10 -6 29 10 11 10 13 0 7 -10 -5 -13 5
-13 38 0 40 -11 60 -32 61 -5 0 -7 2 -6 5 4 13 -24 50 -34 44 -7 -4 -8 -3 -4
5 4 6 11 9 16 6 4 -3 13 2 20 10 11 13 28 15 18 2z m-913 -54 c-11 -7 -15 -13
-11 -13 4 0 0 -10 -8 -21 -9 -14 -13 -33 -9 -52 4 -21 3 -28 -5 -23 -7 4 -12
3 -12 -3 0 -5 6 -12 13 -14 7 -4 6 -6 -4 -6 -18 -1 -33 25 -23 40 3 5 1 9 -5
9 -13 0 3 55 17 56 7 1 17 2 24 3 6 0 8 4 5 7 -10 11 13 45 25 38 7 -5 5 -12
-7 -21z m-301 -4 c-3 -5 -10 -7 -15 -3 -5 3 -7 10 -3 15 3 5 10 7 15 3 5 -3 7
-10 3 -15z m1226 -39 c0 -5 -2 -10 -4 -10 -3 0 -8 5 -11 10 -3 6 -1 10 4 10 6
0 11 -4 11 -10z m-1660 -40 c0 -5 -5 -10 -11 -10 -5 0 -7 5 -4 10 3 6 8 10 11
10 2 0 4 -4 4 -10z m656 -30 c11 0 14 -12 12 -47 -3 -42 -6 -48 -23 -45 -26 5
-36 22 -24 44 5 9 9 21 8 25 -3 19 3 47 8 36 2 -7 11 -13 19 -13z m-655 -3
c-6 -8 -9 -17 -6 -21 3 -3 -1 -1 -7 4 -10 9 -10 13 2 20 21 13 24 12 11 -3z
m1691 -79 c-7 -7 -12 -8 -12 -2 0 6 3 14 7 17 3 4 9 5 12 2 2 -3 -1 -11 -7
-17z m-1632 -64 c0 -8 -19 -13 -24 -6 -3 5 1 9 9 9 8 0 15 -2 15 -3z m1723
-29 c4 -8 3 -16 -1 -19 -4 -3 -9 4 -9 15 -2 23 3 25 10 4z m-203 1 c0 -9 -30
-14 -35 -6 -4 6 3 10 14 10 12 0 21 -2 21 -4z m-4 -28 c4 -6 3 -8 -4 -4 -6 3
-13 2 -17 -4 -3 -5 1 -10 9 -10 9 0 16 -4 16 -10 0 -12 -3 -12 -24 -4 -19 7
-21 30 -3 37 6 3 13 6 14 6 1 1 5 -4 9 -11z m-12 -44 c13 -5 15 -43 17 -267 0
-144 1 -273 0 -286 -1 -13 4 -30 9 -37 8 -9 7 -14 -1 -20 -7 -4 -9 -3 -6 3 9
14 -19 37 -33 28 -10 -6 -12 8 -12 85 0 19 -5 41 -10 48 -7 8 -6 12 3 12 11 0
11 2 -1 10 -8 5 -10 10 -4 10 14 0 13 42 -1 52 -6 5 -4 8 5 8 13 0 13 1 0 10
-8 5 -10 10 -4 10 5 0 10 11 10 25 0 14 -5 25 -10 25 -6 0 -4 5 4 10 13 9 13
10 0 10 -9 0 -11 3 -5 8 6 4 11 16 11 27 0 11 -5 23 -11 27 -7 5 -7 8 1 8 6 0
11 32 11 83 2 131 -1 122 27 111z m219 -9 c4 -8 3 -16 -1 -19 -4 -3 -9 4 -9
15 -2 23 3 25 10 4z m-87 -20 c-1 -8 -5 -17 -8 -21 -5 -4 -4 16 1 34 3 9 9 -1
7 -13z m94 -55 c8 -5 11 -10 5 -10 -5 0 -17 5 -25 10 -8 5 -10 10 -5 10 6 0
17 -5 25 -10z m-1011 -32 c-5 -10 -15 -18 -22 -17 -9 0 -9 2 0 5 7 3 10 11 7
18 -3 7 2 13 10 13 11 0 13 -5 5 -19z m441 12 c0 -5 -5 -10 -11 -10 -5 0 -7 5
-4 10 3 6 8 10 11 10 2 0 4 -4 4 -10z m-1219 -23 c-10 -9 -11 -8 -5 6 3 10 9
15 12 12 3 -3 0 -11 -7 -18z m1694 -26 c3 -5 2 -12 -3 -15 -5 -3 -9 1 -9 9 0
17 3 19 12 6z m-1855 -50 c0 -6 -4 -12 -8 -15 -5 -3 -9 1 -9 9 0 8 4 15 9 15
4 0 8 -4 8 -9z m1950 -15 c0 -3 -4 -8 -10 -11 -5 -3 -10 -1 -10 4 0 6 5 11 10
11 6 0 10 -2 10 -4z m-4 -41 c-3 -8 0 -15 7 -15 8 0 8 -3 -2 -9 -9 -6 -10 -11
-2 -15 6 -4 9 -12 5 -17 -3 -5 -10 -7 -15 -3 -5 3 -7 9 -4 14 3 5 1 11 -5 15
-6 4 -5 13 3 25 14 24 21 26 13 5z m-696 -155 c-12 -8 -12 -10 -1 -10 8 0 12
-3 8 -6 -9 -9 -28 6 -22 17 4 5 12 9 18 9 7 0 6 -4 -3 -10z m-915 -10 c3 -5 1
-10 -4 -10 -6 0 -11 5 -11 10 0 6 2 10 4 10 3 0 8 -4 11 -10z m-168 -125 c0
-6 -6 -12 -12 -12 -6 0 -12 6 -12 12 0 6 6 12 12 12 6 0 12 -6 12 -12z m166
-80 c-3 -9 -8 -14 -10 -11 -3 3 -2 9 2 15 9 16 15 13 8 -4z m564 -71 c-9 -9
-28 6 -21 18 4 6 10 6 17 -1 6 -6 8 -13 4 -17z m1223 -38 c0 -2 -7 -7 -16 -10
-8 -3 -12 -2 -9 4 6 10 25 14 25 6z m-1493 -208 c-3 -8 -6 -5 -6 6 -1 11 2 17
5 13 3 -3 4 -12 1 -19z m313 -83 c0 -8 -4 -15 -10 -15 -5 0 -7 7 -4 15 4 8 8
15 10 15 2 0 4 -7 4 -15z m75 5 c3 -5 1 -10 -4 -10 -6 0 -11 5 -11 10 0 6 2
10 4 10 3 0 8 -4 11 -10z"/>
<path d="M716 2001 c-4 -5 -2 -12 3 -15 5 -4 12 -2 15 3 4 5 2 12 -3 15 -5 4
-12 2 -15 -3z"/>
<path d="M590 1740 c-9 -6 -10 -10 -3 -10 6 0 15 5 18 10 8 12 4 12 -15 0z"/>
<path d="M2180 1785 c-12 -14 -7 -20 14 -16 5 1 5 -6 2 -16 -6 -14 -5 -15 5
-6 9 9 9 16 1 26 -7 8 -9 17 -5 20 3 4 4 7 1 7 -3 0 -11 -7 -18 -15z"/>
<path d="M2279 1653 c0 -5 -2 -16 -4 -26 -2 -11 -1 -16 3 -13 8 8 14 46 7 46
-3 0 -5 -3 -6 -7z"/>
<path d="M2246 1613 c-6 -14 -5 -15 5 -6 7 7 10 15 7 18 -3 3 -9 -2 -12 -12z"/>
<path d="M2307 995 c3 -13 11 -26 17 -28 18 -7 13 33 -6 44 -12 7 -14 4 -11
-16z"/>
<path d="M2305 900 c4 -6 11 -8 16 -5 14 9 11 15 -7 15 -8 0 -12 -5 -9 -10z"/>
<path d="M681 2604 c0 -11 3 -14 6 -6 3 7 2 16 -1 19 -3 4 -6 -2 -5 -13z"/>
<path d="M2105 2491 c-3 -5 0 -13 6 -17 7 -4 9 -3 5 4 -3 5 0 13 6 15 9 4 10
6 1 6 -6 1 -14 -3 -18 -8z"/>
<path d="M2487 2436 c-4 -10 -1 -13 8 -9 8 3 12 9 9 14 -7 12 -11 11 -17 -5z"/>
<path d="M2280 2360 c0 -5 5 -10 11 -10 5 0 7 5 4 10 -3 6 -8 10 -11 10 -2 0
-4 -4 -4 -10z"/>
<path d="M1850 2271 c0 -7 -4 -10 -8 -7 -5 3 -9 -2 -9 -10 0 -13 2 -13 16 0 8
9 12 19 8 22 -4 4 -7 2 -7 -5z"/>
<path d="M327 2213 c3 -7 6 -13 8 -13 2 0 5 6 8 13 3 8 -1 14 -8 14 -7 0 -11
-6 -8 -14z"/>
<path d="M2460 2141 c0 -6 4 -13 10 -16 6 -3 7 1 4 9 -7 18 -14 21 -14 7z"/>
<path d="M2226 2125 c4 -8 11 -15 16 -15 6 0 5 6 -2 15 -7 8 -14 15 -16 15 -2
0 -1 -7 2 -15z"/>
<path d="M1246 2085 c-11 -8 -15 -15 -9 -15 7 0 15 5 18 11 4 6 13 8 21 5 8
-3 14 -1 14 4 0 14 -22 12 -44 -5z"/>
<path d="M1655 2060 c3 -5 8 -10 11 -10 2 0 4 5 4 10 0 6 -5 10 -11 10 -5 0
-7 -4 -4 -10z"/>
<path d="M1680 2046 c-9 -17 -19 -23 -37 -21 -18 2 -27 -3 -30 -16 -6 -21 -18
-25 -28 -9 -3 6 -1 10 6 10 7 0 10 3 6 6 -3 3 -14 1 -24 -5 -10 -6 -12 -11 -5
-11 6 0 11 -5 10 -11 -2 -7 13 -12 37 -13 36 -1 40 -3 37 -25 -2 -13 2 -28 10
-32 9 -6 6 -9 -11 -9 -13 0 -21 3 -18 7 4 3 -2 13 -13 20 -11 8 -18 19 -15 24
4 5 1 9 -4 9 -10 0 -15 -14 -12 -32 0 -5 -3 -8 -9 -8 -5 0 -9 10 -7 22 1 18
-4 24 -28 28 -17 4 -29 12 -27 19 1 7 -2 9 -9 6 -8 -5 -8 -10 0 -18 6 -6 11
-19 11 -29 0 -16 11 -23 33 -19 5 1 11 -8 14 -19 5 -19 6 -19 19 -3 12 17 13
17 8 -2 -5 -18 0 -20 46 -20 40 0 49 3 45 15 -5 12 -4 13 6 3 7 -7 20 -13 29
-13 13 0 16 9 15 40 -2 38 14 58 35 45 5 -3 7 3 6 12 -2 9 -9 19 -17 21 -11 3
-12 2 -1 -6 11 -7 11 -10 -2 -15 -11 -5 -16 -1 -16 14 0 11 -6 19 -12 18 -7
-1 -22 -1 -32 0 -16 1 -17 4 -8 13 10 10 15 10 22 -2 5 -8 10 -10 10 -4 0 6
-6 17 -13 23 -11 8 -17 5 -27 -13z m-60 -126 c9 -16 8 -18 -5 -14 -9 4 -13 9
-11 12 3 3 0 12 -7 20 -9 13 -9 14 0 8 7 -4 18 -16 23 -26z m80 22 c0 -4 -9
-8 -20 -9 -11 -1 -20 2 -20 5 0 4 9 8 20 9 11 1 20 -2 20 -5z m17 -24 c-3 -8
-6 -5 -6 6 -1 11 2 17 5 13 3 -3 4 -12 1 -19z"/>
<path d="M2500 2061 c0 -5 5 -13 10 -16 6 -3 10 -2 10 4 0 5 -4 13 -10 16 -5
3 -10 2 -10 -4z"/>
<path d="M1794 1960 c0 -13 4 -16 10 -10 7 7 7 13 0 20 -6 6 -10 3 -10 -10z"/>
<path d="M1175 1920 c-3 -5 -2 -10 4 -10 5 0 13 5 16 10 3 6 2 10 -4 10 -5 0
-13 -4 -16 -10z"/>
<path d="M2370 1881 c0 -6 4 -13 10 -16 6 -3 7 1 4 9 -7 18 -14 21 -14 7z"/>
<path d="M146 1742 c-3 -5 1 -9 9 -9 8 0 12 4 9 9 -3 4 -7 8 -9 8 -2 0 -6 -4
-9 -8z"/>
<path d="M938 1683 c7 -3 16 -2 19 1 4 3 -2 6 -13 5 -11 0 -14 -3 -6 -6z"/>
<path d="M2629 1663 c0 -5 -2 -16 -4 -25 -2 -10 3 -18 11 -18 17 0 18 17 2 23
-10 4 -10 6 0 6 14 1 17 21 2 21 -5 0 -10 -3 -11 -7z"/>
<path d="M1830 1606 c0 -2 7 -6 15 -10 8 -3 15 -1 15 4 0 6 -7 10 -15 10 -8 0
-15 -2 -15 -4z"/>
<path d="M2450 1599 c0 -5 5 -7 10 -4 6 3 10 8 10 11 0 2 -4 4 -10 4 -5 0 -10
-5 -10 -11z"/>
<path d="M315 1540 c3 -5 1 -10 -6 -10 -10 0 -10 -3 -2 -11 6 -6 16 -8 22 -5
12 8 4 36 -11 36 -5 0 -6 -4 -3 -10z"/>
<path d="M873 1525 c0 -7 6 -11 14 -8 7 3 13 6 13 8 0 2 -6 5 -13 8 -8 3 -14
-1 -14 -8z"/>
<path d="M310 1489 c0 -5 5 -7 10 -4 6 3 10 8 10 11 0 2 -4 4 -10 4 -5 0 -10
-5 -10 -11z"/>
<path d="M1107 1476 c-4 -10 -1 -13 9 -9 15 6 19 23 5 23 -5 0 -11 -7 -14 -14z"/>
<path d="M300 1460 c0 -5 7 -7 15 -4 8 4 15 8 15 10 0 2 -7 4 -15 4 -8 0 -15
-4 -15 -10z"/>
<path d="M839 1458 c0 -2 -2 -11 -4 -21 -3 -15 -1 -16 11 -6 7 6 11 15 8 20
-5 9 -13 12 -15 7z"/>
<path d="M310 1420 c0 -5 5 -10 10 -10 6 0 10 5 10 10 0 6 -4 10 -10 10 -5 0
-10 -4 -10 -10z"/>
<path d="M1740 1366 c0 -2 8 -10 18 -17 15 -13 16 -12 3 4 -13 16 -21 21 -21
13z"/>
<path d="M715 1349 c-4 -6 -5 -12 -2 -15 2 -3 7 2 10 11 7 17 1 20 -8 4z"/>
<path d="M795 1350 c3 -5 8 -10 11 -10 2 0 4 5 4 10 0 6 -5 10 -11 10 -5 0 -7
-4 -4 -10z"/>
<path d="M2625 1280 c-3 -6 1 -7 9 -4 18 7 21 14 7 14 -6 0 -13 -4 -16 -10z"/>
<path d="M753 1265 c0 -8 4 -12 9 -9 5 3 6 10 3 15 -9 13 -12 11 -12 -6z"/>
<path d="M149 1252 c9 -7 10 -12 2 -16 -12 -8 -6 -26 10 -26 14 0 4 44 -12 48
-12 3 -12 2 0 -6z"/>
<path d="M966 1137 c3 -10 9 -15 12 -12 3 3 0 11 -7 18 -10 9 -11 8 -5 -6z"/>
<path d="M715 1093 c3 -12 1 -24 -5 -28 -14 -8 -13 -35 2 -35 6 0 8 3 5 6 -3
4 -2 15 4 25 7 13 6 25 -1 37 -10 15 -10 14 -5 -5z"/>
<path d="M846 995 c4 -8 8 -15 10 -15 2 0 4 7 4 15 0 8 -4 15 -10 15 -5 0 -7
-7 -4 -15z"/>
<path d="M449 953 c-13 -16 -12 -17 4 -4 9 7 17 15 17 17 0 8 -8 3 -21 -13z"/>
<path d="M882 881 c-11 -7 -11 -9 0 -14 9 -3 15 1 15 9 0 8 -1 14 -1 14 -1 0
-7 -4 -14 -9z"/>
<path d="M331 791 c-8 -5 -9 -11 -3 -15 5 -3 12 1 16 9 6 17 6 18 -13 6z"/>
<path d="M1280 751 c0 -6 4 -13 10 -16 6 -3 7 1 4 9 -7 18 -14 21 -14 7z"/>
<path d="M2499 713 c-13 -16 -12 -17 4 -4 16 13 21 21 13 21 -2 0 -10 -8 -17
-17z"/>
<path d="M750 602 c0 -5 7 -9 15 -9 8 0 12 4 9 9 -3 4 -9 8 -15 8 -5 0 -9 -4
-9 -8z"/>
<path d="M1329 588 c0 -2 -2 -11 -4 -21 -3 -15 -1 -16 11 -6 7 6 11 15 8 20
-5 9 -13 12 -15 7z"/>
<path d="M2226 522 c-3 -5 1 -9 9 -9 8 0 12 4 9 9 -3 4 -7 8 -9 8 -2 0 -6 -4
-9 -8z"/>
<path d="M1090 396 c0 -2 7 -7 16 -10 8 -3 12 -2 9 4 -6 10 -25 14 -25 6z"/>
<path d="M1110 190 c0 -6 7 -10 15 -10 8 0 15 2 15 4 0 2 -7 6 -15 10 -8 3
-15 1 -15 -4z"/>
<path d="M1047 2923 c-4 -3 -7 -11 -7 -17 0 -6 5 -5 12 2 6 6 9 14 7 17 -3 3
-9 2 -12 -2z"/>
<path d="M1930 2926 c0 -2 7 -7 16 -10 8 -3 12 -2 9 4 -6 10 -25 14 -25 6z"/>
<path d="M2145 2839 c-4 -6 -5 -12 -2 -15 2 -3 7 2 10 11 7 17 1 20 -8 4z"/>
<path d="M655 2750 c-3 -6 1 -7 9 -4 18 7 21 14 7 14 -6 0 -13 -4 -16 -10z"/>
<path d="M5 1700 c3 -5 11 -10 16 -10 6 0 7 5 4 10 -3 6 -11 10 -16 10 -6 0
-7 -4 -4 -10z"/>
<path d="M0 1510 c0 -5 5 -10 11 -10 5 0 7 5 4 10 -3 6 -8 10 -11 10 -2 0 -4
-4 -4 -10z"/>
<path d="M5 1300 c-3 -6 1 -7 9 -4 18 7 21 14 7 14 -6 0 -13 -4 -16 -10z"/>
<path d="M914 129 c-4 -7 -3 -9 4 -5 5 3 13 0 15 -6 4 -9 6 -10 6 -1 1 17 -16
25 -25 12z"/>
<path d="M1015 89 c-4 -6 -5 -12 -2 -15 2 -3 7 2 10 11 7 17 1 20 -8 4z"/>
<path d="M1210 38 c0 -4 7 -8 15 -8 8 0 15 4 15 8 0 5 -7 9 -15 9 -8 0 -15 -4
-15 -9z"/>
</g>
</svg>
