<svg width="39" height="38" viewBox="0 0 39 38" fill="none" xmlns="http://www.w3.org/2000/svg">
<path d="M37.986 30.2161L33.7733 27.4074L30.0284 24.9112C29.3057 24.4304 28.3344 24.588 27.8008 25.2729L25.4835 28.2519C24.9858 28.8984 24.0903 29.0841 23.3765 28.6889C21.8041 27.8143 19.9448 26.9907 15.8422 22.8829C11.7395 18.775 10.9108 16.9209 10.0361 15.3485C9.6409 14.6347 9.82666 13.7392 10.4731 13.2415L13.4521 10.9242C14.1369 10.3907 14.2946 9.41944 13.8138 8.69663L11.3943 5.067L8.50893 0.738915C8.01783 0.00222807 7.03475 -0.218941 6.2755 0.236385L2.94788 2.2327C2.04858 2.76254 1.38753 3.61812 1.10164 4.62207C0.191659 7.93983 0.00819373 15.2587 11.7375 26.9881C23.4669 38.7175 30.7851 38.5334 34.1028 37.6233C35.1067 37.3375 35.9623 36.6765 36.4922 35.7771L38.4885 32.4495C38.9439 31.6902 38.7227 30.7072 37.986 30.2161Z" fill="#D9D9D9"/>
<path d="M37.986 30.2161L33.7733 27.4074L30.0284 24.9112C29.3057 24.4304 28.3344 24.588 27.8008 25.2729L25.4835 28.2519C24.9858 28.8984 24.0903 29.0841 23.3765 28.6889C21.8041 27.8143 19.9448 26.9907 15.8422 22.8829C11.7395 18.775 10.9108 16.9209 10.0361 15.3485C9.6409 14.6347 9.82666 13.7392 10.4731 13.2415L13.4521 10.9242C14.1369 10.3907 14.2946 9.41944 13.8138 8.69663L11.3943 5.067L8.50893 0.738915C8.01783 0.00222807 7.03475 -0.218941 6.2755 0.236385L2.94788 2.2327C2.04858 2.76254 1.38753 3.61812 1.10164 4.62207C0.191659 7.93983 0.00819373 15.2587 11.7375 26.9881C23.4669 38.7175 30.7851 38.5334 34.1028 37.6233C35.1067 37.3375 35.9623 36.6765 36.4922 35.7771L38.4885 32.4495C38.9439 31.6902 38.7227 30.7072 37.986 30.2161Z" fill="url(#paint0_linear_125_53)"/>
<path d="M21.3251 6.19999C26.9557 6.20624 31.5188 10.7692 31.5251 16.4C31.5251 16.7313 31.7937 17 32.1251 17C32.4564 17 32.7251 16.7314 32.7251 16.4C32.7182 10.1068 27.6183 5.00693 21.3251 5C20.9938 5 20.7251 5.26861 20.7251 5.60003C20.725 5.93131 20.9936 6.19999 21.3251 6.19999Z" fill="#D9D9D9"/>
<path d="M21.3251 6.19999C26.9557 6.20624 31.5188 10.7692 31.5251 16.4C31.5251 16.7313 31.7937 17 32.1251 17C32.4564 17 32.7251 16.7314 32.7251 16.4C32.7182 10.1068 27.6183 5.00693 21.3251 5C20.9938 5 20.7251 5.26861 20.7251 5.60003C20.725 5.93131 20.9936 6.19999 21.3251 6.19999Z" fill="url(#paint1_linear_125_53)"/>
<path d="M21.368 9.28577C25.2715 9.29035 28.4348 12.4536 28.4393 16.3571C28.4393 16.7121 28.7271 17 29.0822 17C29.4372 17 29.7251 16.7122 29.7251 16.3571C29.7198 11.7438 25.9813 8.00532 21.368 8C21.013 8 20.7251 8.2878 20.7251 8.64288C20.7251 8.99797 21.0129 9.28577 21.368 9.28577Z" fill="#D9D9D9"/>
<path d="M21.368 9.28577C25.2715 9.29035 28.4348 12.4536 28.4393 16.3571C28.4393 16.7121 28.7271 17 29.0822 17C29.4372 17 29.7251 16.7122 29.7251 16.3571C29.7198 11.7438 25.9813 8.00532 21.368 8C21.013 8 20.7251 8.2878 20.7251 8.64288C20.7251 8.99797 21.0129 9.28577 21.368 9.28577Z" fill="url(#paint2_linear_125_53)"/>
<path d="M21.2251 13C22.6051 13.0016 23.7234 14.1199 23.7251 15.5C23.7251 15.7761 23.9489 16 24.2251 16C24.5012 16 24.7251 15.7762 24.7251 15.5C24.7229 13.5679 23.1572 12.0022 21.2251 12C20.949 12 20.7251 12.2238 20.7251 12.5C20.725 12.7761 20.9489 13 21.2251 13Z" fill="#D9D9D9"/>
<path d="M21.2251 13C22.6051 13.0016 23.7234 14.1199 23.7251 15.5C23.7251 15.7761 23.9489 16 24.2251 16C24.5012 16 24.7251 15.7762 24.7251 15.5C24.7229 13.5679 23.1572 12.0022 21.2251 12C20.949 12 20.7251 12.2238 20.7251 12.5C20.725 12.7761 20.9489 13 21.2251 13Z" fill="url(#paint3_linear_125_53)"/>
<defs>
<linearGradient id="paint0_linear_125_53" x1="6.39426" y1="6.43639" x2="35.0996" y2="35.1416" gradientUnits="userSpaceOnUse">
<stop stop-color="#EF60C0"/>
<stop offset="1" stop-color="#A02D7B"/>
</linearGradient>
<linearGradient id="paint1_linear_125_53" x1="22.5154" y1="7.03255" x2="31.5802" y2="16.0974" gradientUnits="userSpaceOnUse">
<stop stop-color="#EF60C0"/>
<stop offset="1" stop-color="#A02D7B"/>
</linearGradient>
<linearGradient id="paint2_linear_125_53" x1="22.0678" y1="9.52441" x2="28.8664" y2="16.3231" gradientUnits="userSpaceOnUse">
<stop stop-color="#EF60C0"/>
<stop offset="1" stop-color="#A02D7B"/>
</linearGradient>
<linearGradient id="paint3_linear_125_53" x1="21.3219" y1="12.6775" x2="24.3435" y2="15.6991" gradientUnits="userSpaceOnUse">
<stop stop-color="#EF60C0"/>
<stop offset="1" stop-color="#A02D7B"/>
</linearGradient>
</defs>
</svg>
